<svg width="191" height="34" viewBox="0 0 191 34" fill="none" xmlns="http://www.w3.org/2000/svg">
<g clip-path="url(#clip0_158_23)">
<path d="M3.10372 0.220459H0V15.6195H3.10372V0.220459Z" fill="#F7F2EC"/>
<path d="M19.176 10.7882L12.1485 0.199463H9.0448V15.6193H12.1485V5.0515L19.176 15.6193H22.2798V0.199463H19.176V10.7882Z" fill="#F7F2EC"/>
<path d="M37.9181 1.17061C36.685 0.539163 35.2543 0.220459 33.6291 0.220459H28.2208V15.6195H33.6291C35.2543 15.6195 36.685 15.3038 37.9181 14.6723C39.1512 14.0409 40.1059 13.1473 40.7764 11.9916C41.4498 10.836 41.785 9.48669 41.785 7.94381C41.785 6.40092 41.4498 5.04271 40.7764 3.87215C40.103 2.70158 39.1512 1.80206 37.9181 1.17061ZM37.2866 11.67C36.4006 12.5516 35.1436 12.9924 33.5184 12.9924H31.3245V2.8237H33.5184C35.1436 2.8237 36.4006 3.27644 37.2866 4.18191C38.1725 5.08739 38.6154 6.34135 38.6154 7.94381C38.6154 9.54626 38.1725 10.7883 37.2866 11.6729V11.67Z" fill="#F7F2EC"/>
<path d="M55.9747 13.1055H50.0994V9.02189H55.3102V6.57353H50.0994V2.71335H55.9747V0.199463H46.9957V15.6193H55.9747V13.1055Z" fill="#F7F2EC"/>
<path d="M70.4279 0.837016C69.5868 0.425978 68.5662 0.220459 67.369 0.220459H61.6704V15.6195H64.7741V9.7071H67.369C68.6411 9.7071 69.6916 9.48669 70.5266 9.04587C71.3617 8.60504 71.9752 8.02423 72.3673 7.30342C72.7594 6.58261 72.9539 5.81117 72.9539 4.98612C72.9539 4.07469 72.7444 3.25857 72.3224 2.53776C71.9004 1.81696 71.2689 1.25103 70.4279 0.839995V0.837016ZM69.1439 6.63027C68.7309 7.02046 68.0933 7.21406 67.2373 7.21406H64.7771V2.73434H67.2373C68.9224 2.73434 69.7634 3.48494 69.7634 4.98612C69.7634 5.69203 69.5569 6.24008 69.1439 6.63027Z" fill="#F7F2EC"/>
<path d="M78.033 15.6193H87.0089V13.1055H81.1337V9.02189H86.3445V6.57353H81.1337V2.71335H87.0089V0.199463H78.033V15.6193Z" fill="#F7F2EC"/>
<path d="M95.8112 5.0515L102.839 15.6193H105.942V0.199463H102.839V10.7882L95.8112 0.199463H92.7075V15.6193H95.8112V5.0515Z" fill="#F7F2EC"/>
<path d="M121.581 1.17061C120.348 0.539163 118.917 0.220459 117.292 0.220459H111.884V15.6195H117.292C118.917 15.6195 120.348 15.3038 121.581 14.6723C122.814 14.0409 123.769 13.1473 124.439 11.9916C125.113 10.836 125.448 9.48669 125.448 7.94381C125.448 6.40092 125.113 5.04271 124.439 3.87215C123.766 2.70158 122.814 1.80206 121.581 1.17061ZM120.949 11.67C120.063 12.5516 118.806 12.9924 117.181 12.9924H114.987V2.8237H117.181C118.806 2.8237 120.063 3.27644 120.949 4.18191C121.835 5.08739 122.278 6.34135 122.278 7.94381C122.278 9.54626 121.835 10.7883 120.949 11.6729V11.67Z" fill="#F7F2EC"/>
<path d="M130.659 15.6193H139.638V13.1055H133.762V9.02189H138.973V6.57353H133.762V2.71335H139.638V0.199463H130.659V15.6193Z" fill="#F7F2EC"/>
<path d="M155.464 10.7882L148.437 0.199463H145.333V15.6193H148.437V5.0515L155.464 15.6193H158.568V0.199463H155.464V10.7882Z" fill="#F7F2EC"/>
<path d="M163.689 2.71349H167.813V15.6195H170.917V2.71349H175.038V0.220459H163.689V2.71349Z" fill="#F7F2EC"/>
<path d="M190.312 8.84621C189.854 8.25943 189.306 7.81563 188.672 7.52374C188.037 7.22886 187.217 6.93696 186.211 6.64209C185.472 6.42168 184.9 6.22807 184.493 6.0583C184.086 5.88852 183.748 5.66811 183.473 5.39706C183.2 5.12601 183.063 4.78348 183.063 4.37244C183.063 3.78567 183.242 3.33591 183.604 3.02614C183.967 2.71638 184.451 2.56149 185.056 2.56149C185.75 2.56149 186.307 2.73425 186.729 3.07976C187.151 3.42527 187.376 3.86311 187.405 4.39329H190.82C190.716 3.01125 190.165 1.93302 189.168 1.16158C188.172 0.39014 186.873 0.00292969 185.277 0.00292969C184.212 0.00292969 183.266 0.18462 182.44 0.542045C181.611 0.902448 180.971 1.42071 180.513 2.09684C180.055 2.77297 179.824 3.56824 179.824 4.47967C179.824 5.45067 180.049 6.22509 180.501 6.80591C180.953 7.38672 181.491 7.82159 182.12 8.10753C182.748 8.39347 183.565 8.68536 184.568 8.98024C185.307 9.18576 185.888 9.37341 186.307 9.54318C186.726 9.71296 187.079 9.94529 187.361 10.2372C187.642 10.5321 187.783 10.9074 187.783 11.3631C187.783 11.923 187.576 12.3758 187.163 12.7183C186.75 13.0638 186.181 13.2366 185.457 13.2366C184.733 13.2366 184.191 13.0519 183.784 12.6855C183.377 12.3192 183.152 11.8188 183.108 11.1844H179.782C179.797 12.1256 180.055 12.9417 180.558 13.6327C181.06 14.3237 181.743 14.8539 182.608 15.2203C183.473 15.5866 184.442 15.7713 185.523 15.7713C186.66 15.7713 187.642 15.5628 188.471 15.1428C189.297 14.7229 189.926 14.1599 190.357 13.454C190.785 12.7481 191 11.9826 191 11.1605C191 10.2044 190.77 9.43298 190.312 8.84323V8.84621Z" fill="#F7F2EC"/>
<path d="M60.964 29.8449C60.7036 29.6393 60.4133 29.5113 60.099 29.4606C60.5569 29.3117 60.9221 29.0704 61.2004 28.7339C61.4787 28.4003 61.6164 27.9743 61.6164 27.462C61.6164 27.048 61.5117 26.6757 61.3052 26.3451C61.0986 26.0145 60.7874 25.7523 60.3713 25.5587C59.9553 25.3651 59.4525 25.2668 58.8629 25.2668H55.7472V33.9106H58.9856C59.5662 33.9106 60.072 33.8093 60.5 33.6067C60.928 33.4042 61.2543 33.1272 61.4788 32.7757C61.7032 32.4243 61.814 32.0311 61.814 31.5903C61.814 31.2418 61.7361 30.9171 61.5835 30.6103C61.4309 30.3035 61.2214 30.0474 60.961 29.8419L60.964 29.8449ZM56.8815 26.1991H58.7641C59.3118 26.1991 59.7308 26.3242 60.0212 26.5714C60.3115 26.8187 60.4581 27.1642 60.4581 27.602C60.4581 28.0399 60.3115 28.3824 60.0212 28.6326C59.7308 28.8798 59.3178 29.0049 58.7881 29.0049H56.8815V26.2021V26.1991ZM60.2097 32.5851C59.8925 32.8502 59.4525 32.9813 58.8898 32.9813H56.8845V29.9312H58.8539C59.4106 29.9312 59.8536 30.0682 60.1858 30.3452C60.518 30.6223 60.6856 31.0005 60.6856 31.4801C60.6856 31.9596 60.527 32.32 60.2127 32.5851H60.2097Z" fill="#F7F2EC"/>
<path d="M67.6862 29.6455L65.5432 25.27H64.2832L67.1265 30.6493V33.9108H68.2609V30.6493L71.0892 25.27H69.8292L67.6862 29.6455Z" fill="#F7F2EC"/>
<path d="M83.2258 29.5531C82.8757 29.4012 82.4147 29.2463 81.8431 29.0884C81.3702 28.9574 81.0021 28.8382 80.7417 28.734C80.4813 28.6297 80.2598 28.4808 80.0802 28.2812C79.9006 28.0817 79.8109 27.8255 79.8109 27.5128C79.8109 27.0749 79.9605 26.7324 80.2598 26.4881C80.5591 26.2439 80.9452 26.1218 81.4181 26.1218C81.9239 26.1218 82.3309 26.2469 82.6392 26.5001C82.9475 26.7532 83.1211 27.0451 83.163 27.3757H84.4081C84.3422 26.7056 84.0489 26.1694 83.5281 25.7644C83.0073 25.3593 82.3429 25.1567 81.5288 25.1567C80.9631 25.1567 80.4633 25.255 80.0263 25.4546C79.5894 25.6542 79.2512 25.9341 79.0117 26.2975C78.7693 26.6609 78.6496 27.0779 78.6496 27.5485C78.6496 28.0846 78.7723 28.5136 79.0177 28.8323C79.2631 29.151 79.5564 29.3833 79.9036 29.5322C80.2478 29.6811 80.7087 29.8301 81.2804 29.979C81.7443 30.1041 82.1154 30.2203 82.3908 30.3275C82.6662 30.4347 82.8936 30.5926 83.0762 30.7981C83.2588 31.0036 83.3515 31.2747 83.3515 31.6053C83.3515 32.0282 83.1959 32.3737 82.8846 32.6418C82.5734 32.9099 82.1484 33.0439 81.6066 33.0439C81.0649 33.0439 80.613 32.9069 80.3167 32.6299C80.0204 32.3529 79.8528 32.0104 79.8109 31.6053H78.6017C78.6107 32.0759 78.7424 32.4929 78.9998 32.8503C79.2572 33.2107 79.6133 33.4907 80.0653 33.6932C80.5172 33.8958 81.032 33.997 81.6036 33.997C82.1753 33.997 82.72 33.8809 83.16 33.6485C83.6 33.4162 83.9322 33.1154 84.1567 32.7431C84.3811 32.3708 84.4919 31.9746 84.4919 31.5517C84.4919 31.0066 84.3662 30.5747 84.1177 30.256C83.8693 29.9373 83.57 29.702 83.2199 29.5501L83.2258 29.5531Z" fill="#F7F2EC"/>
<path d="M93.9407 25.7346C93.2762 25.3593 92.537 25.1716 91.7229 25.1716C90.9088 25.1716 90.1815 25.3593 89.5171 25.7346C88.8526 26.1099 88.3259 26.6371 87.9398 27.3102C87.5537 27.9834 87.3591 28.7429 87.3591 29.5858C87.3591 30.4287 87.5537 31.1883 87.9398 31.8614C88.3259 32.5346 88.8526 33.0618 89.5171 33.4371C90.1815 33.8124 90.9178 34 91.7229 34C92.528 34 93.2762 33.8124 93.9407 33.4371C94.6051 33.0618 95.1289 32.5376 95.512 31.8674C95.8951 31.1972 96.0867 30.4377 96.0867 29.5858C96.0867 28.734 95.8951 27.9744 95.512 27.3043C95.1289 26.6341 94.6051 26.1128 93.9407 25.7346ZM94.5094 31.3938C94.231 31.915 93.8479 32.3142 93.363 32.5971C92.8782 32.8771 92.3305 33.0201 91.7229 33.0201C91.1153 33.0201 90.5706 32.8801 90.0857 32.5971C89.6009 32.3142 89.2178 31.915 88.9394 31.3938C88.6611 30.8726 88.5234 30.2709 88.5234 29.5828C88.5234 28.8948 88.6611 28.2842 88.9394 27.7659C89.2178 27.2506 89.5979 26.8515 90.0797 26.5686C90.5616 26.2886 91.1093 26.1456 91.7259 26.1456C92.3424 26.1456 92.8902 26.2856 93.372 26.5686C93.8539 26.8485 94.234 27.2477 94.5124 27.7659C94.7907 28.2812 94.9284 28.8888 94.9284 29.5828C94.9284 30.2768 94.7907 30.8726 94.5124 31.3938H94.5094Z" fill="#F7F2EC"/>
<path d="M104.365 25.794C103.671 25.4426 102.851 25.2668 101.905 25.2668H99.2024V33.9106H101.905C102.851 33.9106 103.674 33.7378 104.365 33.3953C105.057 33.0527 105.589 32.5553 105.961 31.906C106.332 31.2567 106.514 30.4912 106.514 29.6066C106.514 28.7219 106.329 27.9535 105.961 27.3012C105.592 26.6489 105.06 26.1455 104.365 25.794ZM104.47 32.0937C103.88 32.6864 103.024 32.9813 101.902 32.9813H100.331V26.1842H101.902C103.015 26.1842 103.868 26.4851 104.464 27.0897C105.057 27.6944 105.356 28.5313 105.356 29.6066C105.356 30.6818 105.06 31.5009 104.47 32.0937Z" fill="#F7F2EC"/>
<path d="M109.63 33.9108H114.302V32.9815H110.764V30.0059H113.928V29.0766H110.764V26.1874H114.302V25.2551H109.63V33.9108Z" fill="#F7F2EC"/>
<path d="M122.601 25.27L120.608 28.6536L118.513 25.27H117.244L119.908 29.5978L117.256 33.9108H118.513L120.494 30.5391L122.575 33.9108H123.858L121.192 29.5978L123.87 25.27H122.601Z" fill="#F7F2EC"/>
<path d="M133.155 25.7346C132.49 25.3593 131.751 25.1716 130.937 25.1716C130.123 25.1716 129.395 25.3593 128.731 25.7346C128.067 26.1099 127.54 26.6371 127.154 27.3102C126.768 27.9834 126.573 28.7429 126.573 29.5858C126.573 30.4287 126.768 31.1883 127.154 31.8614C127.54 32.5346 128.067 33.0618 128.731 33.4371C129.395 33.8124 130.132 34 130.937 34C131.742 34 132.49 33.8124 133.155 33.4371C133.819 33.0618 134.343 32.5376 134.726 31.8674C135.109 31.1972 135.301 30.4377 135.301 29.5858C135.301 28.734 135.109 27.9744 134.726 27.3043C134.343 26.6341 133.819 26.1128 133.155 25.7346ZM133.72 31.3938C133.442 31.915 133.059 32.3142 132.574 32.5971C132.089 32.8801 131.541 33.0201 130.937 33.0201C130.332 33.0201 129.785 32.8801 129.3 32.5971C128.815 32.3171 128.432 31.915 128.153 31.3938C127.875 30.8726 127.737 30.2709 127.737 29.5828C127.737 28.8948 127.875 28.2842 128.153 27.7659C128.432 27.2477 128.812 26.8515 129.294 26.5686C129.776 26.2886 130.323 26.1456 130.94 26.1456C131.556 26.1456 132.104 26.2856 132.586 26.5686C133.068 26.8485 133.448 27.2477 133.726 27.7659C134.005 28.2842 134.142 28.8888 134.142 29.5828C134.142 30.2768 134.005 30.8726 133.726 31.3938H133.72Z" fill="#F7F2EC"/>
</g>
<defs>
<clipPath id="clip0_158_23">
<rect width="191" height="34" fill="white"/>
</clipPath>
</defs>
</svg>
