<svg width="246" height="46" viewBox="0 0 246 46" fill="none" xmlns="http://www.w3.org/2000/svg">
<path d="M3.99746 1.25635H0V21.6374H3.99746V1.25635Z" fill="#222221"/>
<path d="M24.6979 15.2435L15.6468 1.229H11.6493V21.6377H15.6468V7.65082L24.6979 21.6377H28.6954V1.229H24.6979V15.2435Z" fill="#222221"/>
<path d="M48.8368 2.5139C47.2486 1.67816 45.406 1.25635 43.3129 1.25635H36.3472V21.6374H43.3129C45.406 21.6374 47.2486 21.2196 48.8368 20.3838C50.425 19.5481 51.6547 18.3654 52.5182 16.8358C53.3855 15.3063 53.8173 13.5205 53.8173 11.4784C53.8173 9.43637 53.3855 7.63874 52.5182 6.08946C51.6509 4.54018 50.425 3.34965 48.8368 2.5139ZM48.0235 16.4101C46.8824 17.577 45.2634 18.1604 43.1702 18.1604H40.3446V4.70181H43.1702C45.2634 4.70181 46.8824 5.30103 48.0235 6.49945C49.1645 7.69787 49.735 9.35753 49.735 11.4784C49.735 13.5993 49.1645 15.2432 48.0235 16.414V16.4101Z" fill="#222221"/>
<path d="M72.0931 18.3105H64.526V12.9057H71.2373V9.66527H64.526V4.5562H72.0931V1.229H60.5286V21.6377H72.0931V18.3105Z" fill="#222221"/>
<path d="M90.7081 2.07238C89.6249 1.52836 88.3104 1.25635 86.7684 1.25635H79.4288V21.6374H83.4263V13.8122H86.7684C88.4067 13.8122 89.7598 13.5205 90.8353 12.937C91.9108 12.3536 92.701 11.5849 93.206 10.6309C93.711 9.67685 93.9616 8.65582 93.9616 7.56384C93.9616 6.35753 93.6917 5.27737 93.1482 4.32337C92.6046 3.36936 91.7913 2.62034 90.7081 2.07632V2.07238ZM89.0544 9.73992C88.5224 10.2563 87.7013 10.5126 86.5988 10.5126H83.4301V4.58355H86.5988C88.7691 4.58355 89.8523 5.57698 89.8523 7.56384C89.8523 8.49814 89.5863 9.2235 89.0544 9.73992Z" fill="#222221"/>
<path d="M100.503 21.6377H112.064V18.3105H104.497V12.9057H111.208V9.66527H104.497V4.5562H112.064V1.229H100.503V21.6377Z" fill="#222221"/>
<path d="M123.401 7.65082L132.452 21.6377H136.45V1.229H132.452V15.2435L123.401 1.229H119.403V21.6377H123.401V7.65082Z" fill="#222221"/>
<path d="M156.591 2.5139C155.003 1.67816 153.16 1.25635 151.067 1.25635H144.101V21.6374H151.067C153.16 21.6374 155.003 21.2196 156.591 20.3838C158.179 19.5481 159.409 18.3654 160.272 16.8358C161.14 15.3063 161.571 13.5205 161.571 11.4784C161.571 9.43637 161.14 7.63874 160.272 6.08946C159.405 4.54018 158.179 3.34965 156.591 2.5139ZM155.778 16.4101C154.637 17.577 153.018 18.1604 150.924 18.1604H148.099V4.70181H150.924C153.018 4.70181 154.637 5.30103 155.778 6.49945C156.919 7.69787 157.489 9.35753 157.489 11.4784C157.489 13.5993 156.919 15.2432 155.778 16.414V16.4101Z" fill="#222221"/>
<path d="M168.283 21.6377H179.847V18.3105H172.28V12.9057H178.991V9.66527H172.28V4.5562H179.847V1.229H168.283V21.6377Z" fill="#222221"/>
<path d="M200.232 15.2435L191.18 1.229H187.183V21.6377H191.18V7.65082L200.232 21.6377H204.229V1.229H200.232V15.2435Z" fill="#222221"/>
<path d="M210.825 4.55595H216.137V21.6374H220.134V4.55595H225.442V1.25635H210.825V4.55595Z" fill="#222221"/>
<path d="M245.113 12.6731C244.524 11.8965 243.818 11.3091 243.001 10.9228C242.184 10.5325 241.128 10.1461 239.832 9.75587C238.88 9.46415 238.144 9.20791 237.62 8.9832C237.095 8.7585 236.66 8.46678 236.305 8.10804C235.954 7.7493 235.777 7.29595 235.777 6.75193C235.777 5.97532 236.008 5.38005 236.475 4.97006C236.941 4.56008 237.566 4.35508 238.344 4.35508C239.239 4.35508 239.956 4.58373 240.499 5.04102C241.043 5.49832 241.332 6.07782 241.37 6.77953H245.769C245.634 4.95035 244.925 3.52328 243.641 2.50226C242.357 1.48123 240.684 0.96875 238.63 0.96875C237.257 0.96875 236.039 1.20922 234.975 1.68228C233.907 2.15929 233.082 2.84523 232.493 3.7401C231.903 4.63498 231.606 5.68754 231.606 6.89385C231.606 8.179 231.895 9.20397 232.477 9.97269C233.059 10.7414 233.753 11.317 234.563 11.6954C235.372 12.0739 236.425 12.4602 237.716 12.8505C238.668 13.1225 239.416 13.3709 239.956 13.5956C240.495 13.8203 240.95 14.1278 241.313 14.5141C241.675 14.9044 241.856 15.4011 241.856 16.0042C241.856 16.7454 241.59 17.3446 241.058 17.7979C240.526 18.2552 239.794 18.4839 238.861 18.4839C237.928 18.4839 237.23 18.2394 236.706 17.7546C236.182 17.2697 235.893 16.6074 235.835 15.7677H231.552C231.571 17.0134 231.903 18.0936 232.551 19.0082C233.198 19.9228 234.077 20.6245 235.191 21.1094C236.305 21.5942 237.554 21.8387 238.946 21.8387C240.411 21.8387 241.675 21.5627 242.743 21.0069C243.807 20.451 244.616 19.7059 245.171 18.7716C245.722 17.8373 246 16.8242 246 15.7362C246 14.4707 245.703 13.4497 245.113 12.6691V12.6731Z" fill="#222221"/>
<path d="M78.519 40.4654C78.1837 40.1934 77.8097 40.0239 77.405 39.9568C77.9948 39.7597 78.4651 39.4404 78.8236 38.9949C79.1821 38.5534 79.3594 37.9897 79.3594 37.3116C79.3594 36.7637 79.2245 36.2709 78.9585 35.8333C78.6925 35.3957 78.2916 35.0488 77.7558 34.7926C77.2199 34.5363 76.5723 34.4062 75.8129 34.4062H71.8V45.8465H75.971C76.7188 45.8465 77.3703 45.7124 77.9215 45.4444C78.4728 45.1763 78.8929 44.8097 79.1821 44.3445C79.4712 43.8793 79.6138 43.3589 79.6138 42.7755C79.6138 42.3143 79.5136 41.8846 79.317 41.4785C79.1204 41.0725 78.8505 40.7335 78.5152 40.4614L78.519 40.4654ZM73.261 35.6402H75.6857C76.3912 35.6402 76.9308 35.8057 77.3047 36.1329C77.6787 36.4601 77.8676 36.9174 77.8676 37.4969C77.8676 38.0764 77.6787 38.5298 77.3047 38.8609C76.9308 39.1881 76.3989 39.3537 75.7166 39.3537H73.261V35.6441V35.6402ZM77.5476 44.0922C77.139 44.443 76.5723 44.6165 75.8476 44.6165H73.2649V40.5797H75.8014C76.5184 40.5797 77.0889 40.761 77.5168 41.1277C77.9447 41.4943 78.1605 41.9949 78.1605 42.6296C78.1605 43.2643 77.9562 43.7413 77.5515 44.0922H77.5476Z" fill="#222221"/>
<path d="M87.177 40.2012L84.417 34.4102H82.7941L86.4562 41.5297V45.8464H87.9171V41.5297L91.56 34.4102H89.9371L87.177 40.2012Z" fill="#222221"/>
<path d="M107.191 40.0789C106.74 39.8779 106.147 39.6729 105.41 39.4639C104.801 39.2905 104.327 39.1328 103.992 38.9948C103.656 38.8568 103.371 38.6597 103.14 38.3956C102.909 38.1315 102.793 37.7924 102.793 37.3785C102.793 36.799 102.986 36.3457 103.371 36.0224C103.757 35.6992 104.254 35.5375 104.863 35.5375C105.514 35.5375 106.039 35.7031 106.436 36.0382C106.833 36.3733 107.056 36.7596 107.11 37.1972H108.714C108.629 36.3102 108.251 35.6006 107.581 35.0645C106.91 34.5283 106.054 34.2603 105.006 34.2603C104.277 34.2603 103.633 34.3903 103.07 34.6545C102.508 34.9186 102.072 35.2892 101.764 35.7701C101.451 36.2511 101.297 36.803 101.297 37.4258C101.297 38.1354 101.455 38.7031 101.771 39.1249C102.088 39.5467 102.465 39.8542 102.912 40.0513C103.356 40.2484 103.949 40.4455 104.686 40.6426C105.283 40.8082 105.761 40.962 106.116 41.1039C106.47 41.2458 106.763 41.4547 106.999 41.7267C107.234 41.9988 107.353 42.3575 107.353 42.7951C107.353 43.3549 107.153 43.8122 106.752 44.167C106.351 44.5218 105.804 44.6992 105.106 44.6992C104.408 44.6992 103.826 44.5178 103.444 44.1512C103.063 43.7846 102.847 43.3312 102.793 42.7951H101.236C101.247 43.4179 101.417 43.9698 101.748 44.4429C102.08 44.9199 102.539 45.2905 103.121 45.5585C103.703 45.8266 104.366 45.9606 105.102 45.9606C105.838 45.9606 106.54 45.8069 107.107 45.4994C107.673 45.1919 108.101 44.7938 108.39 44.301C108.679 43.8082 108.822 43.2839 108.822 42.7241C108.822 42.0027 108.66 41.4311 108.34 41.0093C108.02 40.5875 107.635 40.276 107.184 40.075L107.191 40.0789Z" fill="#222221"/>
<path d="M120.992 35.0253C120.136 34.5286 119.184 34.2803 118.135 34.2803C117.087 34.2803 116.15 34.5286 115.294 35.0253C114.438 35.5221 113.76 36.2198 113.263 37.1108C112.765 38.0017 112.515 39.0069 112.515 40.1226C112.515 41.2382 112.765 42.2435 113.263 43.1344C113.76 44.0253 114.438 44.7231 115.294 45.2198C116.15 45.7165 117.098 45.9649 118.135 45.9649C119.172 45.9649 120.136 45.7165 120.992 45.2198C121.847 44.7231 122.522 44.0293 123.015 43.1423C123.509 42.2553 123.756 41.25 123.756 40.1226C123.756 38.9951 123.509 37.9899 123.015 37.1029C122.522 36.2159 121.847 35.526 120.992 35.0253ZM121.724 42.5155C121.366 43.2054 120.872 43.7336 120.248 44.1081C119.623 44.4787 118.918 44.6679 118.135 44.6679C117.353 44.6679 116.651 44.4826 116.027 44.1081C115.402 43.7336 114.909 43.2054 114.55 42.5155C114.192 41.8256 114.014 41.0293 114.014 40.1186C114.014 39.208 114.192 38.3999 114.55 37.7139C114.909 37.0319 115.398 36.5037 116.019 36.1292C116.64 35.7586 117.345 35.5694 118.139 35.5694C118.933 35.5694 119.639 35.7546 120.259 36.1292C120.88 36.4997 121.369 37.028 121.728 37.7139C122.086 38.3959 122.264 39.2001 122.264 40.1186C122.264 41.0372 122.086 41.8256 121.728 42.5155H121.724Z" fill="#222221"/>
<path d="M134.418 35.104C133.524 34.6388 132.467 34.4062 131.249 34.4062H127.768V45.8465H131.249C132.467 45.8465 133.528 45.6178 134.418 45.1645C135.308 44.7111 135.995 44.0528 136.473 43.1934C136.951 42.334 137.186 41.3208 137.186 40.15C137.186 38.9792 136.947 37.9621 136.473 37.0988C135.998 36.2354 135.312 35.5692 134.418 35.104ZM134.553 43.4417C133.794 44.2262 132.691 44.6165 131.245 44.6165H129.222V35.6204H131.245C132.679 35.6204 133.778 36.0186 134.545 36.8189C135.308 37.6191 135.694 38.7269 135.694 40.15C135.694 41.5731 135.312 42.6572 134.553 43.4417Z" fill="#222221"/>
<path d="M141.199 45.8466H147.216V44.6166H142.66V40.6784H146.734V39.4484H142.66V35.6245H147.216V34.3906H141.199V45.8466Z" fill="#222221"/>
<path d="M157.906 34.4102L155.338 38.8885L152.64 34.4102H151.005L154.436 40.1381L151.021 45.8464H152.64L155.192 41.3839L157.871 45.8464H159.525L156.09 40.1381L159.54 34.4102H157.906Z" fill="#222221"/>
<path d="M171.498 35.0253C170.642 34.5286 169.69 34.2803 168.641 34.2803C167.593 34.2803 166.656 34.5286 165.8 35.0253C164.944 35.5221 164.266 36.2198 163.769 37.1108C163.271 38.0017 163.021 39.0069 163.021 40.1226C163.021 41.2382 163.271 42.2435 163.769 43.1344C164.266 44.0253 164.944 44.7231 165.8 45.2198C166.656 45.7165 167.604 45.9649 168.641 45.9649C169.678 45.9649 170.642 45.7165 171.498 45.2198C172.353 44.7231 173.028 44.0293 173.521 43.1423C174.015 42.2553 174.262 41.25 174.262 40.1226C174.262 38.9951 174.015 37.9899 173.521 37.1029C173.028 36.2159 172.353 35.526 171.498 35.0253ZM172.226 42.5155C171.868 43.2054 171.374 43.7336 170.75 44.1081C170.125 44.4826 169.42 44.6679 168.641 44.6679C167.863 44.6679 167.157 44.4826 166.533 44.1081C165.908 43.7376 165.415 43.2054 165.056 42.5155C164.698 41.8256 164.52 41.0293 164.52 40.1186C164.52 39.208 164.698 38.3999 165.056 37.7139C165.415 37.028 165.904 36.5037 166.525 36.1292C167.146 35.7586 167.851 35.5694 168.645 35.5694C169.439 35.5694 170.145 35.7546 170.765 36.1292C171.386 36.4997 171.875 37.028 172.234 37.7139C172.592 38.3999 172.77 39.2001 172.77 40.1186C172.77 41.0372 172.592 41.8256 172.234 42.5155H172.226Z" fill="#222221"/>
</svg>
